<?xml version="1.0" encoding="UTF-8"?>
<svg id="Layer_1" data-name="Layer 1" xmlns="http://www.w3.org/2000/svg" viewBox="0 0 50.58 42.7">
  <defs>
    <style>
      .cls-1 {
        fill: #231f20;
      }
    </style>
  </defs>
  <g>
    <path class="cls-1" d="M4.02,26.08c-.06,0-.11.02-.17.05-.05.03-.1.07-.15.12-.05.05-.09.09-.14.14-.04.05-.08.09-.12.12,0,0-.03,0-.06.02-.03.01-.06.03-.09.05-.12.05-.23.1-.34.16-.11.06-.22.12-.33.17s-.23.1-.35.14c-.12.04-.24.06-.36.06h-.3s-.05-.03-.1-.04c-.06-.02-.09-.03-.1-.04,0,0-.03,0-.06,0-.03,0-.07,0-.11-.01-.04,0-.08-.01-.11-.02-.04,0-.06-.02-.06-.03-.03,0-.08-.02-.16-.03-.07-.01-.11-.02-.13-.02-.08-.05-.16-.14-.25-.26s-.17-.26-.25-.41c-.08-.15-.14-.3-.2-.45s-.08-.28-.08-.38c0-.15.03-.29.08-.44.05-.14.09-.28.12-.42.19-.29.39-.55.57-.76.19-.21.43-.41.73-.58,0,0,.02-.02.05-.03.03-.02.07-.03.1-.05s.07-.03.11-.04c.04-.01.06-.02.07-.03.06-.03.13-.08.2-.13s.14-.11.21-.17c.07-.06.14-.1.2-.15.06-.04.12-.07.18-.08.01,0,.05-.01.1-.02.06,0,.11-.01.18-.02.06,0,.12-.01.17-.02s.09-.01.11-.02c0,0,.04-.02.09-.07.05-.05.08-.07.1-.07.02,0,.07-.03.15-.07s.17-.08.26-.13.18-.09.26-.13c.08-.04.13-.07.15-.08.06-.04.12-.09.16-.17.04-.07.07-.15.08-.22.02-.08.03-.16.03-.23,0-.08,0-.15,0-.21,0-.31-.04-.59-.12-.85s-.23-.5-.43-.75c-.01-.03-.05-.07-.1-.12s-.09-.07-.1-.07h-.58c-.08.07-.17.13-.27.19-.1.06-.18.12-.21.21-.08.14-.16.29-.24.46-.08.16-.14.32-.17.49-.02.02-.06.05-.12.09-.06.04-.12.08-.18.12-.06.04-.12.08-.18.11-.06.04-.1.06-.13.07,0,0-.03,0-.06,0-.03,0-.07,0-.11,0s-.09,0-.13,0c-.05,0-.08,0-.11,0-.01,0-.04,0-.08,0-.04,0-.08,0-.13,0s-.09,0-.13,0c-.04,0-.07,0-.09,0-.06-.04-.13-.09-.2-.14-.07-.05-.14-.11-.19-.17-.06-.06-.11-.13-.15-.2-.04-.07-.06-.16-.06-.25,0-.1.01-.18.03-.25.02-.07.05-.14.09-.2s.08-.13.13-.19c.05-.06.11-.13.17-.2.05-.07.09-.13.12-.18.03-.05.08-.1.15-.15.04-.03.07-.05.11-.06.03,0,.07-.02.1-.02.04,0,.07,0,.11-.01.04,0,.09-.02.15-.04.03,0,.08-.03.18-.08.09-.05.19-.1.3-.16.11-.06.21-.11.3-.16.09-.05.15-.08.17-.09.01,0,.04-.01.08-.01s.08,0,.12-.01c.04,0,.08-.01.12-.01.04,0,.06,0,.08,0,.18-.05.35-.11.52-.18.17-.07.34-.11.53-.11h.12c.27.05.56.11.87.18.3.07.58.2.82.37.02.02.05.05.09.08.04.04.08.08.13.12.04.05.08.09.11.12.03.04.05.06.06.08,0,0,.01.03.02.07,0,.04.02.08.02.12,0,.04.01.08.01.13,0,.04,0,.07,0,.07,0,.02.01.06.03.12.02.06.05.12.07.19s.05.14.07.19c.02.06.03.1.03.12,0,.22.01.41.01.55,0,.15,0,.3.01.46,0,.16.01.28.02.38v.09s-.02.04-.03.06c-.01.04-.02.06-.02.08-.01.01-.03.05-.04.1s-.02.09-.02.09c0,.02-.01.08-.02.18s-.01.21-.02.32c0,.11-.01.22-.02.32,0,.1,0,.16,0,.19,0,.02-.01.06-.03.11-.02.05-.04.08-.04.1-.02.12-.03.22-.04.31,0,.09-.01.17-.02.26,0,.08,0,.17,0,.25v.8s.04.09.07.18c.04.08.06.14.07.17.04.11.12.19.22.24.1.05.21.08.34.11s.25.04.38.05.25.03.36.06c.11.03.2.08.27.15s.11.17.11.31c0,.1-.05.23-.15.37s-.22.28-.36.41c-.14.13-.29.24-.45.33s-.29.14-.4.14h-.18s-.05-.01-.11-.03c-.06-.02-.1-.03-.1-.03-.02,0-.06-.01-.13-.02s-.14-.01-.21-.01c-.08,0-.15,0-.21-.01s-.11-.01-.13-.02c-.1-.04-.21-.12-.33-.23s-.23-.23-.35-.35c-.11-.12-.22-.22-.33-.32-.11-.09-.2-.14-.29-.14ZM1.95,24.64c0,.14.05.24.14.32.09.07.21.13.34.17s.27.07.41.08c.14.02.26.04.35.06h0c.13,0,.27-.04.41-.12.14-.08.24-.17.3-.26.02-.03.05-.08.08-.14.03-.06.06-.12.09-.17l.08-.16s.03-.07.03-.09v-1.29l-.06-.14s-.04,0-.08,0c-.04,0-.07,0-.09,0-.18,0-.34.04-.49.13-.15.09-.29.18-.44.29-.03.02-.08.05-.14.09-.06.04-.12.09-.17.13s-.1.09-.15.12c-.04.04-.07.05-.07.05,0,0-.02.03-.05.06-.03.03-.05.07-.08.11s-.06.09-.08.13-.05.08-.07.11c-.01.01-.02.04-.03.07,0,.03-.01.06-.01.07-.01,0-.03.02-.05.05-.02.03-.05.05-.07.08-.02.03-.04.06-.06.09-.02.03-.03.05-.04.06v.09Z"/>
    <path class="cls-1" d="M8.46,25.73v-.23s.02-.06.06-.13c.04-.07.06-.11.06-.13.03-.08.06-.16.09-.26.03-.09.06-.18.09-.27.04-.08.08-.16.14-.21s.14-.09.25-.09h.1s.04.03.08.09c.03.06.06.1.08.14.08.16.18.33.28.53s.22.38.35.55.28.31.46.43c.18.12.38.17.6.17.08,0,.19-.03.32-.09s.26-.13.38-.22.24-.17.34-.27.16-.18.18-.25c.03-.08.05-.16.07-.23s.03-.15.03-.22c0-.13-.03-.26-.1-.4,0-.08-.07-.19-.2-.32-.13-.14-.29-.27-.46-.4-.17-.13-.34-.25-.51-.37-.16-.11-.27-.18-.33-.21-.07-.03-.14-.04-.22-.04-.07,0-.14-.03-.19-.07,0-.01-.01-.03-.04-.06s-.06-.05-.09-.08c-.03-.03-.07-.07-.13-.12-.01-.03-.06-.06-.13-.11-.07-.05-.12-.09-.15-.11l-.14-.07-.54-.54c-.05-.11-.08-.22-.11-.33s-.06-.22-.09-.34c0-.03-.02-.08-.03-.14-.02-.06-.03-.11-.04-.17-.01-.06-.03-.1-.04-.15-.01-.04-.02-.07-.02-.07-.01-.18,0-.36.04-.55s.1-.38.18-.55c.08-.18.18-.34.29-.49s.23-.28.37-.38c.01-.01.05-.03.11-.04.06-.02.1-.03.12-.04.1-.04.2-.1.32-.18.11-.08.23-.16.35-.24.12-.08.25-.15.37-.21.12-.06.24-.09.35-.09s.24.02.38.07c.14.05.26.09.36.12.18.06.34.11.51.17.16.05.31.12.43.2.13.08.23.19.3.32s.11.3.11.51c0,.07,0,.17-.02.31-.02.13-.04.26-.08.39s-.09.24-.17.33c-.07.09-.16.14-.27.14h-.06s-.04-.06-.07-.14c-.03-.08-.06-.12-.07-.14-.09-.16-.19-.32-.3-.47-.11-.15-.23-.28-.36-.39-.13-.11-.28-.2-.43-.27s-.33-.1-.53-.1c-.06,0-.13,0-.2,0-.08,0-.15.03-.2.07-.22.17-.39.35-.5.54-.11.19-.17.42-.17.71,0,.16.04.3.11.42.07.13.16.24.27.34.11.1.23.18.37.25s.27.13.4.17c0,0,.03.01.07.02.04,0,.08.01.13.02.05,0,.09.01.13.02.04,0,.06,0,.07,0,.01,0,.04.01.07.03.03.02.05.03.07.03.14.1.29.21.44.31s.3.2.45.31c.15.11.29.22.42.35.14.12.26.26.37.4,0,0,.02.03.04.07s.04.08.06.13c.02.05.04.1.06.15.02.05.04.09.05.11,0,.01,0,.04,0,.08s0,.08.01.13.01.09.02.13c0,.04.02.07.02.07.03.08.06.15.1.21.04.06.08.12.11.18s.07.12.09.18c.03.06.04.13.04.2,0,.21-.05.4-.14.57s-.18.36-.27.55c-.08.14-.19.27-.33.4s-.25.24-.34.32c-.26.23-.56.39-.9.48s-.66.14-.97.14c-.23,0-.47-.01-.71-.04-.24-.03-.46-.08-.67-.18,0,0-.03-.02-.07-.04-.04-.02-.08-.05-.13-.08-.05-.03-.09-.06-.14-.08s-.07-.04-.08-.05c-.13-.08-.25-.15-.35-.21s-.18-.13-.25-.21c-.06-.08-.11-.17-.15-.28-.03-.11-.05-.25-.05-.43Z"/>
    <path class="cls-1" d="M20.84,27.18s-.1-.07-.16-.11c-.06-.03-.11-.07-.16-.1-.05-.04-.09-.08-.12-.12-.03-.04-.05-.1-.05-.17,0-.14.03-.24.09-.32.06-.08.14-.13.23-.17.09-.04.2-.06.31-.07s.21-.02.31-.03l.15-.13v-1.82s-.03-.06-.04-.13c-.02-.07-.02-.11-.02-.12,0-.02,0-.06,0-.13,0-.07.01-.14.02-.22,0-.08.01-.16.02-.23,0-.08.01-.14.02-.18,0-.01.01-.06.03-.13.02-.07.03-.12.03-.15v-.25s.01-.06.03-.13c.02-.07.03-.12.03-.14l-.14-1.55c-.06-.07-.13-.14-.19-.21-.05-.06-.11-.12-.16-.18s-.1-.12-.14-.16c-.05-.06-.13-.12-.24-.15s-.22-.06-.34-.08c-.12-.02-.24-.03-.35-.03-.12,0-.21,0-.29,0-.07,0-.16,0-.27,0-.11,0-.17,0-.19.01,0,0-.03,0-.06.02-.03.01-.07.03-.1.05s-.07.04-.11.05c-.04.01-.06.02-.07.02,0,0-.03,0-.08,0-.05,0-.09.01-.15.01-.05,0-.1,0-.15.01-.05,0-.07,0-.08,0-.01,0-.03.01-.04.03-.02.02-.03.03-.04.03,0,.03,0,.07-.02.15s-.03.11-.04.12c0,.02-.01.04-.04.05-.01,0-.02.01-.03.02-.03.06-.06.13-.08.21-.02.08-.04.17-.06.27-.02.09-.03.19-.04.28s-.01.17-.01.23c0,.08,0,.14,0,.19,0,.05.03.11.08.17-.01.07-.02.19-.02.35v1.01c0,.16,0,.27.02.33,0,.03,0,.12.01.26,0,.14.02.3.03.48s.03.35.04.53c.01.17.02.31.03.41.02.16.04.31.06.46s.07.3.17.43c.02,0,.05.02.1.04.05.02.1.05.16.08s.11.06.16.08c.05.03.08.05.1.07.06.03.09.07.09.15v.09c0,.13-.03.22-.09.28-.06.06-.14.1-.23.12s-.19.03-.3.03-.22,0-.32,0h-.27s-.07-.03-.15-.05c-.07-.02-.12-.03-.14-.03-.05,0-.12,0-.22,0-.09,0-.19.01-.28.02-.09,0-.18.02-.25.03s-.12.02-.12.02c-.09.01-.19.02-.29.03s-.2.02-.29.03h-.77s-.09-.05-.14-.07-.09-.05-.14-.08c-.06-.09-.09-.18-.09-.25,0-.08.03-.17.09-.26,0-.03.03-.06.08-.12.05-.05.09-.09.13-.11.06-.03.15-.05.27-.06.11-.02.23-.04.34-.07.11-.03.21-.08.29-.14.08-.06.12-.15.12-.26v-1.68s-.03-.07-.04-.14c-.02-.07-.02-.11-.02-.13,0-.01.01-.05.03-.1.02-.05.03-.09.03-.11v-.1c0-.07,0-.14,0-.2s0-.13,0-.19c0-.14.03-.27.08-.39v-1.34c-.03-.08-.05-.16-.05-.22,0-.06,0-.13,0-.22,0-.1.01-.18.03-.25.02-.07.05-.13.07-.19s.05-.11.07-.17c.02-.06.03-.12.03-.19,0-.17-.01-.33-.04-.48s-.04-.31-.04-.47c0-.15.01-.29.04-.43s.04-.28.04-.42v-.43c-.02-.05-.03-.09-.04-.12,0-.03-.02-.06-.03-.09s-.01-.05-.01-.05v-1.27s0-.09,0-.19c0-.1-.01-.21-.02-.33,0-.11-.02-.22-.02-.32,0-.1,0-.17,0-.2v-.25s0-.04-.02-.07c-.02-.03-.03-.06-.03-.07-.05-.08-.11-.17-.17-.24-.06-.08-.14-.13-.24-.17-.02,0-.06,0-.11-.02-.05-.02-.11-.03-.17-.05-.06-.02-.11-.03-.16-.04-.05-.01-.08-.02-.1-.03h-.18c-.06,0-.12,0-.18,0-.06,0-.11-.01-.16-.03s-.09-.05-.12-.09c-.03-.04-.04-.09-.04-.17v-.05s.01-.05.02-.08c0-.04.01-.07.02-.11,0-.04.02-.08.03-.14l.06-.07c.19-.05.37-.08.55-.11s.36-.08.54-.16l.07-.07s.02-.01.03-.01.03,0,.04-.01l.06-.02s.04-.01.09-.02c.04,0,.1-.02.15-.02.05,0,.1-.01.15-.01.04,0,.07,0,.08,0,.02-.01.05-.04.08-.08.04-.04.05-.06.05-.08.1-.08.21-.14.32-.16s.23-.03.36-.03c.09,0,.19,0,.31.02.11.02.19.07.24.16,0,.04.02.1.04.19.02.09.04.19.06.29.02.1.04.2.06.29.02.09.04.14.05.17,0,.03.02.08.06.16.04.07.06.12.06.14v.39s0,.05-.02.11c-.02.06-.02.09-.02.11-.02.14-.04.27-.05.39-.01.12-.02.23-.03.34,0,.11,0,.22,0,.34v.39s0,.07,0,.14c0,.06,0,.14,0,.21s0,.15,0,.22c0,.07,0,.12,0,.15.03.08.05.15.06.23s0,.16,0,.25v.58s-.04.07-.08.14c-.04.07-.06.12-.08.15v.12s.02.06.04.11c.02.05.04.11.06.17.02.06.04.13.06.19.02.06.03.11.04.13.02.04.03.07.04.09,0,.02.02.04.03.05s.03.01.05.01h.17s.05,0,.05-.02l.56-.53c.29-.03.57-.07.84-.13.27-.06.54-.09.82-.09.14,0,.29,0,.45,0,.17,0,.31.03.44.06.01,0,.04,0,.08.03.04.02.08.04.13.07.05.03.09.05.13.07s.06.03.07.03c0,0,.02,0,.05,0,.03,0,.05.01.08.02.03,0,.06.02.09.02.03,0,.05,0,.05,0,.04.03.08.05.12.06.03.02.06.05.09.09.08.1.17.2.26.3.09.1.17.21.24.32.07.11.14.23.19.35.05.12.07.26.07.4s0,.28-.02.42-.04.29-.06.42c0,0-.01.03-.03.07-.02.04-.03.06-.03.08v.12s.01.04.02.09c0,.05.01.15.02.31,0,.16.01.4.02.71,0,.31,0,.74,0,1.28,0,.01-.01.05-.03.12-.02.06-.03.11-.03.14v1.09s-.03.04-.04.1c-.02.05-.02.08-.02.09,0,.03,0,.07.02.12.01.05.03.11.04.17s.03.11.04.16c.02.05.03.08.03.09.01.02.04.05.07.08.03.04.07.07.1.11.04.04.07.07.1.1.03.03.06.04.07.04l.76.16s.08.07.11.1c.03.03.06.06.08.08s.05.05.07.07c.01.03.03.06.04.11.02.05.02.08.02.11,0,.05-.01.09-.04.13-.03.03-.07.06-.11.08s-.09.03-.14.04-.08.02-.11.02c-.08,0-.21,0-.4,0-.19,0-.39.01-.59.02s-.4.02-.59.02c-.18,0-.31,0-.37,0h-.16c-.05-.01-.09-.02-.12-.03s-.06-.02-.09-.02c-.03,0-.05,0-.05,0-.05,0-.12,0-.21,0-.1,0-.21,0-.33,0-.12,0-.22,0-.32,0-.1,0-.17,0-.21,0Z"/>
    <path class="cls-1" d="M27.33,27.03h-.07c-.23.04-.46.08-.69.11-.23.03-.47.04-.71.04-.19,0-.34-.04-.44-.12-.11-.08-.21-.2-.31-.37-.03-.05-.05-.08-.06-.1,0-.02,0-.05,0-.11s.02-.1.06-.15c.04-.05.09-.09.14-.13s.11-.07.18-.09c.06-.02.12-.04.16-.04h.81s.06-.02.12-.05c.05-.04.11-.07.17-.12.06-.04.11-.09.16-.13.05-.05.08-.08.09-.1.01,0,.03-.03.04-.07.02-.04.03-.08.04-.13.01-.05.02-.09.03-.13s.01-.07.01-.09c0-.1-.01-.2-.02-.3,0-.1,0-.21,0-.32,0-.38.02-.76.05-1.14.03-.38.05-.76.05-1.13v-.67s.01-.06.02-.13.01-.14.02-.21c0-.08.01-.15.02-.21s.02-.11.03-.13v-.15c0-.13-.01-.26-.04-.38s-.04-.26-.04-.39c0-.09,0-.16.01-.21,0-.05.05-.12.12-.2-.01-.05-.02-.12-.02-.24v-.73c0-.12,0-.2.02-.25,0-.01.01-.06.03-.13.02-.07.03-.12.03-.15v-.1c0-.05,0-.1,0-.14,0-.04-.03-.1-.06-.16v-1.35s-.02-.04-.03-.07c-.01-.04-.03-.07-.04-.12-.01-.04-.03-.08-.04-.12-.01-.04-.02-.06-.03-.08v-.12c0-.13.01-.26.04-.38s.04-.25.04-.38c0-.16-.01-.29-.04-.38s-.07-.21-.11-.36c-.04-.16-.08-.27-.14-.34-.05-.07-.16-.12-.33-.14-.03,0-.09,0-.16,0s-.16-.01-.24-.02c-.09,0-.17-.02-.25-.02-.08,0-.13,0-.16,0-.03-.01-.07-.05-.14-.12s-.12-.12-.15-.14v-.29s.06-.04.11-.08c.06-.04.11-.09.17-.14.06-.05.11-.1.17-.14.05-.05.09-.08.11-.1.01,0,.04-.02.08-.03.04-.02.06-.02.08-.02.01,0,.05-.01.12-.01.06,0,.14,0,.21-.01.08,0,.15-.01.21-.02s.11-.01.13-.02c0,0,.03-.03.08-.06.04-.03.1-.07.15-.11.05-.04.1-.08.15-.12.04-.04.07-.06.08-.07.01,0,.04,0,.08,0,.04,0,.08,0,.12-.01.04,0,.08-.01.12-.02.04,0,.06-.02.08-.03.02,0,.06-.01.11-.04.05-.03.11-.06.17-.09.06-.03.12-.06.17-.09s.08-.04.1-.04h.08c.12,0,.21.03.26.09.05.06.12.12.21.18.04.03.08.06.14.08.05.02.1.05.15.08.05.03.09.07.12.12.03.05.05.1.05.18v.04c-.05.21-.09.44-.14.66-.05.23-.07.45-.07.68,0,.08.01.17.04.25.03.08.04.17.04.25v.05s-.03.04-.04.09c-.02.05-.03.08-.04.09v1.89s0,.04,0,.07c0,.03-.01.07-.02.1s-.02.07-.02.1c0,.03,0,.05,0,.06,0,.03,0,.11,0,.24,0,.13,0,.27-.01.41,0,.15-.01.28-.02.41s-.02.21-.02.24c0,0,0,.05-.02.12-.02.07-.02.12-.02.15v1.29s0,.05,0,.1c0,.05-.01.11-.02.17,0,.06-.02.11-.02.17,0,.05,0,.08,0,.09,0,.02,0,.05,0,.09,0,.04,0,.07,0,.09,0,.23.01.47.04.7.03.23.04.46.04.7v.27s0,.04-.02.07c-.01.03-.03.07-.05.11-.02.04-.04.07-.05.11-.02.03-.03.05-.03.06,0,.03,0,.09,0,.19,0,.1-.01.2-.02.32,0,.11-.01.22-.02.32,0,.1-.01.16-.02.19,0,.01,0,.04,0,.07s-.01.07-.02.11-.02.07-.02.1c0,.03,0,.05,0,.06v.1c0,.16.02.32.05.47.03.15.06.3.09.45,0,.01.01.04.02.09s.01.1.02.15c0,.05.02.1.02.15s.01.08.02.09c.01.03.04.08.09.14.05.06.08.09.09.09h1.23s.06.02.15.06c.08.04.15.07.2.11.01,0,.02,0,.03.02,0,.01.01.03.01.04.01.02.03.05.05.08.02.04.05.07.07.12.02.04.04.08.06.12.02.04.03.06.04.08v.05s0,.08,0,.13c0,.06-.01.11-.02.17-.01.05-.03.11-.06.16s-.07.08-.13.1c-.25.03-.51.07-.78.1-.27.04-.54.05-.81.05-.06,0-.12,0-.17-.02-.05-.02-.09-.03-.14-.05-.04-.02-.09-.04-.13-.05-.05-.02-.1-.02-.16-.02-.05,0-.1.01-.14.04-.04.03-.08.06-.12.1s-.08.07-.12.1c-.04.03-.09.04-.14.04s-.1-.01-.15-.03-.09-.05-.14-.08-.1-.05-.15-.08c-.05-.02-.1-.03-.16-.03Z"/>
    <path class="cls-1" d="M31.55,31.12c0-.33.06-.58.18-.74.12-.16.34-.24.66-.24h.16c.06,0,.12,0,.18,0,.07,0,.13.03.19.06.06.04.12.07.17.11.05.03.09.06.14.09.04.03.1.04.15.06.06.01.13.02.22.02.06,0,.14-.02.22-.06s.16-.09.23-.15c.07-.06.13-.12.18-.19.05-.07.09-.14.11-.2,0-.01.01-.05.01-.1s0-.11.01-.17c0-.06.01-.12.01-.18,0-.05,0-.09,0-.11.02-.02.04-.05.05-.1.01-.05.02-.08.02-.08.01-.01.05-.05.11-.1.06-.06.1-.09.12-.1.01-.02.03-.05.06-.1.03-.04.05-.09.08-.13s.06-.08.08-.12c.03-.04.04-.06.04-.06v-.26s0-.07.02-.16.03-.18.04-.29c.01-.1.03-.2.04-.29.01-.09.02-.14.02-.16l.04-.07c0-.1-.02-.2-.05-.28-.03-.08-.07-.16-.12-.23-.05-.07-.1-.14-.16-.21-.06-.07-.11-.15-.16-.22-.01-.01-.03-.05-.04-.1-.02-.05-.02-.09-.02-.11,0-.02-.02-.06-.03-.13-.01-.06-.03-.14-.04-.21-.02-.08-.03-.15-.05-.21-.02-.06-.03-.1-.03-.12-.05-.15-.13-.29-.24-.44-.11-.14-.2-.29-.27-.45-.01-.01-.03-.06-.04-.13-.02-.07-.03-.12-.04-.12-.05-.18-.11-.34-.19-.47-.08-.13-.17-.27-.26-.41-.01-.02-.03-.05-.05-.09-.02-.04-.05-.08-.07-.13s-.04-.09-.06-.13c-.02-.04-.03-.07-.03-.08,0,0,0-.02,0-.05s0-.05-.01-.08c0-.03-.01-.06-.02-.08,0-.02-.02-.04-.02-.04,0-.01-.02-.04-.05-.08-.03-.04-.06-.09-.09-.13s-.06-.09-.09-.13c-.03-.04-.04-.06-.05-.08-.06-.09-.1-.17-.13-.24-.03-.07-.05-.13-.07-.2-.02-.06-.03-.13-.05-.2-.02-.07-.04-.15-.08-.24-.04-.12-.1-.22-.15-.31-.06-.09-.11-.17-.17-.26-.06-.08-.13-.17-.2-.25s-.15-.18-.22-.27c0-.01-.03-.06-.06-.14-.04-.08-.06-.12-.06-.14-.06-.08-.13-.15-.22-.21-.09-.06-.17-.12-.25-.19-.08-.06-.15-.13-.2-.2-.06-.07-.08-.17-.08-.28s0-.21.01-.29c0-.08.05-.16.12-.25h.45c.15,0,.29.01.43.03.14.02.28.03.44.03.26,0,.52-.01.78-.03.26-.02.52-.03.77-.03.09,0,.19,0,.29.03.1.02.2.05.29.09.09.04.16.1.22.18.06.07.09.17.09.28,0,.13-.01.21-.04.25s-.07.05-.12.05h-.24s-.05,0-.08,0c-.08.02-.14.08-.19.18s-.08.2-.11.32c-.02.11-.04.22-.04.33,0,.11,0,.18,0,.23,0,.07,0,.12.02.14.01.02.04.07.07.17,0,.03.02.08.04.13s.04.11.06.17c.02.06.04.11.06.16.02.05.02.07.02.08,0,.01.01.05.03.1.02.05.05.11.08.17l.09.19c.03.06.05.12.06.16.02.01.04.04.05.07,0,.02.01.04.02.05.01.01.04.04.08.09s.09.1.14.15.09.11.13.15c.04.05.06.07.07.09.02.03.05.1.09.19.04.1.08.2.13.31.04.11.08.21.12.31.04.1.06.17.07.21.05.06.11.1.16.14.06.03.12.05.21.05.14,0,.28-.03.41-.08.13-.05.26-.11.38-.18,0-.03.02-.08.04-.15.02-.07.05-.16.08-.24.03-.09.06-.17.08-.25.03-.08.05-.13.07-.17,0,0,0-.03.02-.07.02-.04.04-.08.06-.13.02-.04.04-.08.06-.12.02-.04.03-.06.04-.07,0-.01.02-.04.03-.08.01-.04.03-.09.05-.14.02-.05.04-.09.05-.13s.02-.06.03-.07c.01-.05.05-.1.1-.17.06-.07.08-.14.08-.21,0-.06-.01-.11-.03-.17-.02-.05-.03-.11-.03-.17,0-.17.02-.35.07-.52s.07-.35.07-.52c0-.12-.01-.2-.04-.24-.03-.04-.07-.07-.12-.08-.05-.01-.11-.02-.17-.03s-.13-.03-.2-.08c-.01,0-.03,0-.06-.03-.03-.02-.06-.04-.1-.07-.04-.03-.07-.06-.11-.08-.04-.03-.06-.05-.07-.07-.07-.06-.13-.13-.19-.19-.06-.06-.09-.14-.09-.23,0-.08.03-.14.09-.19.06-.05.13-.09.21-.12s.16-.05.25-.06c.08-.01.15-.02.19-.02.04,0,.13,0,.29,0s.32-.01.5-.02c.18,0,.34-.02.5-.02s.25,0,.29,0c0,0,.03,0,.06,0,.03,0,.07-.01.1-.01.04,0,.07,0,.11-.01.04,0,.06,0,.07,0,0,0,.05,0,.14-.02.09-.01.15-.02.19-.02.04,0,.11,0,.19.02.08.01.13.02.15.02h.23c.09,0,.18,0,.26.02.08.01.17.05.26.1,0,0,0,.01,0,.01,0,0,.01.01.02.02,0,.01.01.02.02.03v.49l-.02.02-.03.03s-.05.05-.1.08c-.05.03-.1.07-.15.1-.05.04-.1.07-.15.1-.04.03-.08.05-.1.06-.01.01-.03.02-.05.03-.03.02-.06.03-.08.03-.13.05-.24.1-.34.14s-.19.11-.28.2c-.04.05-.1.11-.16.17-.06.06-.12.13-.17.19-.07.07-.14.15-.21.23-.01.02-.03.06-.04.13s-.03.14-.04.21c-.01.08-.02.15-.03.22,0,.07-.02.11-.02.12-.01.03-.04.07-.07.15-.04.07-.06.12-.07.14,0,0,0,.03,0,.06,0,.03-.01.07-.02.11,0,.04-.01.08-.02.11s0,.06,0,.06c-.04.11-.09.21-.17.3s-.13.19-.17.3c-.1.25-.2.49-.3.72-.1.23-.18.47-.25.72,0,.01-.01.06-.03.13-.02.08-.03.12-.03.14,0,.01-.02.06-.03.14-.01.08-.03.16-.04.26-.01.09-.02.18-.03.26,0,.08-.01.13-.01.15-.05.19-.11.38-.21.57s-.17.38-.22.57c-.03.12-.06.25-.08.38-.02.14-.06.26-.1.36,0,.01-.02.04-.04.07-.02.04-.05.07-.07.11-.02.04-.04.07-.06.1-.02.03-.03.05-.04.06-.08.14-.13.28-.17.43-.04.15-.07.3-.1.47v.12s-.02.04-.04.08c-.02.04-.04.09-.06.14s-.04.09-.06.13-.02.06-.02.07c0,0-.02.03-.03.06-.02.04-.03.08-.05.13-.02.05-.03.09-.04.14-.01.04-.02.07-.02.08-.01,0-.05.04-.11.09s-.1.08-.12.1c0,.01,0,.04,0,.09,0,.05,0,.1-.01.16,0,.05-.01.11-.01.15,0,.05,0,.07-.01.09-.03.13-.06.27-.1.42s-.1.28-.19.39c-.14.16-.28.32-.43.48-.15.17-.32.32-.49.45-.18.14-.36.25-.56.34-.2.09-.42.13-.64.13-.24,0-.45-.05-.62-.14-.17-.09-.33-.23-.48-.39-.02-.02-.04-.05-.07-.09-.03-.04-.05-.08-.08-.11-.03-.04-.05-.07-.08-.09-.02-.03-.03-.04-.03-.05v-.1Z"/>
    <path class="cls-1" d="M45.05,25.73v-.23s.02-.06.06-.13.06-.11.06-.13c.03-.08.06-.16.09-.26.03-.09.06-.18.09-.27.04-.08.08-.16.14-.21.06-.06.14-.09.25-.09h.1s.05.03.08.09.06.1.08.14c.08.16.18.33.28.53s.22.38.35.55.28.31.46.43c.18.12.38.17.6.17.08,0,.19-.03.32-.09s.26-.13.38-.22c.13-.08.24-.17.34-.27.1-.09.16-.18.18-.25.03-.08.05-.16.07-.23s.03-.15.03-.22c0-.13-.03-.26-.1-.4,0-.08-.07-.19-.2-.32-.13-.14-.29-.27-.46-.4-.17-.13-.34-.25-.51-.37s-.27-.18-.33-.21c-.07-.03-.14-.04-.22-.04-.08,0-.14-.03-.19-.07,0-.01-.01-.03-.04-.06-.03-.03-.06-.05-.09-.08-.03-.03-.07-.07-.13-.12-.01-.03-.05-.06-.13-.11s-.12-.09-.15-.11l-.14-.07-.54-.54c-.04-.11-.08-.22-.11-.33s-.06-.22-.09-.34c0-.03-.02-.08-.03-.14-.02-.06-.03-.11-.04-.17-.01-.06-.03-.1-.04-.15-.01-.04-.02-.07-.02-.07-.01-.18,0-.36.04-.55.04-.19.1-.38.18-.55.08-.18.18-.34.29-.49s.23-.28.37-.38c.01-.01.05-.03.11-.04.06-.02.1-.03.12-.04.1-.04.2-.1.32-.18.11-.08.23-.16.36-.24.12-.08.25-.15.37-.21.12-.06.24-.09.35-.09s.24.02.38.07c.14.05.26.09.36.12.17.06.34.11.51.17.16.05.31.12.43.2.13.08.23.19.3.32.08.13.11.3.11.51,0,.07,0,.17-.02.31-.02.13-.04.26-.08.39-.04.13-.09.24-.17.33-.07.09-.16.14-.27.14h-.06s-.04-.06-.07-.14c-.03-.08-.05-.12-.07-.14-.09-.16-.19-.32-.3-.47-.11-.15-.23-.28-.36-.39-.13-.11-.28-.2-.43-.27-.16-.06-.33-.1-.53-.1-.06,0-.13,0-.2,0s-.15.03-.21.07c-.22.17-.39.35-.5.54-.11.19-.17.42-.17.71,0,.16.04.3.11.42s.16.24.27.34c.11.1.23.18.37.25.14.07.27.13.4.17,0,0,.03.01.07.02.04,0,.08.01.13.02.05,0,.09.01.13.02.04,0,.06,0,.07,0,.01,0,.04.01.07.03.03.02.06.03.07.03.14.1.29.21.44.31.15.1.3.2.45.31.15.11.29.22.42.35.14.12.26.26.37.4,0,0,.02.03.04.07s.04.08.06.13.04.1.06.15.04.09.05.11c0,.01,0,.04,0,.08,0,.04,0,.08.01.13,0,.05.01.09.02.13,0,.04.02.07.02.07.03.08.06.15.1.21.04.06.08.12.11.18.04.06.07.12.09.18.03.06.04.13.04.2,0,.21-.04.4-.14.57s-.18.36-.27.55c-.08.14-.2.27-.33.4-.14.13-.25.24-.34.32-.26.23-.56.39-.9.48-.34.09-.66.14-.97.14-.23,0-.47-.01-.71-.04-.24-.03-.46-.08-.67-.18,0,0-.03-.02-.07-.04-.04-.02-.08-.05-.13-.08-.05-.03-.09-.06-.14-.08s-.07-.04-.08-.05c-.13-.08-.25-.15-.34-.21-.1-.06-.18-.13-.25-.21-.06-.08-.11-.17-.15-.28-.03-.11-.05-.25-.05-.43Z"/>
  </g>
  <g>
    <path class="cls-1" d="M6.46,12.19c-.85-.44-1.14-1.14-.74-1.92s1.13-.94,2-.5,1.09,1.11.7,1.88-1.1.97-1.95.53ZM7.45,10.3c-.6-.31-1.04-.23-1.26.22-.23.44-.04.85.56,1.16.6.31.99.19,1.22-.25.2-.38.09-.82-.51-1.13Z"/>
    <path class="cls-1" d="M9.96,9.02l-.59-.43c-.22-.16-.37-.14-.57.14l-.37.51.9.65-.34.47-2.3-1.66.84-1.17c.31-.43.79-.5,1.18-.23.25.18.37.45.29.73.21-.16.38-.15.65.04l.65.47-.34.47ZM7.43,8.52l.61.44.44-.6c.19-.26.13-.45-.05-.57-.18-.13-.38-.13-.55.11l-.45.62Z"/>
    <path class="cls-1" d="M11.87,6.96l-.21-.19c.07.27-.06.59-.34.87-.56.55-1.43.39-1.98-.18-.59-.6-.72-1.41-.07-2.06.48-.47,1.13-.56,1.56-.18l-.43.42c-.21-.17-.56-.12-.79.11-.34.33-.3.82.17,1.3.33.33.87.54,1.26.15.28-.27.28-.7.04-.95l-.45.44-.33-.34.84-.83,1.07,1.08-.35.35Z"/>
    <path class="cls-1" d="M13.89,5.47l-.48-.38-.86.59.17.6-.52.36-.78-2.91.56-.39,2.43,1.76-.53.37ZM12.06,4.06h0s.34,1.14.34,1.14l.59-.41-.93-.73Z"/>
    <path class="cls-1" d="M16.04,4.35l-1.91-1.2.82,1.72-.5.24-1.22-2.56.57-.27,1.8,1.17-.78-1.65.5-.24,1.22,2.56-.49.23Z"/>
    <path class="cls-1" d="M16.67,4.11l-.96-2.67.56-.2.96,2.66-.56.2Z"/>
    <path class="cls-1" d="M19.53,2.25c.05.65-.28,1.18-.91,1.34-.72.19-1.4-.16-1.64-1.11-.24-.93.11-1.62.89-1.83.69-.18,1.23.15,1.43.69l-.57.15c-.16-.29-.45-.41-.72-.34-.48.12-.6.55-.45,1.15.16.61.47.91.92.79.34-.09.5-.33.49-.7l.57-.15Z"/>
    <path class="cls-1" d="M22.96,2.87l-.15-1.94-.38,1.98-.59.04-.67-1.89.15,1.93-.55.04-.21-2.83.87-.07.67,2.03.35-2.11.85-.06.21,2.83-.55.04Z"/>
    <path class="cls-1" d="M25.6,2.91l-.16-.59-1.05-.04-.22.58-.63-.02L24.67.03l.69.03.89,2.88-.65-.03ZM24.98.68h0l-.41,1.11.72.03-.31-1.14Z"/>
    <path class="cls-1" d="M26.35,2.98l.28-2.32-.85-.1.06-.49,2.29.27-.06.49-.85-.1-.28,2.32-.59-.07Z"/>
    <path class="cls-1" d="M30.4,2.75c-.26.6-.79.92-1.44.77-.72-.17-1.16-.8-.94-1.75.22-.94.85-1.39,1.64-1.21.69.16,1.03.71.95,1.28l-.58-.14c0-.33-.21-.58-.48-.64-.48-.11-.79.21-.93.81-.14.61,0,1.03.45,1.13.34.08.6-.07.76-.39l.58.14Z"/>
    <path class="cls-1" d="M31.76,4.31l.45-1.19-1.04-.4-.46,1.19-.56-.21,1.01-2.65.56.21-.38,1,1.04.4.38-1,.56.21-1.01,2.65-.56-.21Z"/>
    <path class="cls-1" d="M34.14,5.53l.13-.6-.91-.51-.46.41-.55-.31,2.27-1.98.6.34-.52,2.96-.56-.32ZM34.6,3.26h0s-.87.8-.87.8l.63.35.24-1.16Z"/>
    <path class="cls-1" d="M36.08,6.94l1.54-1.76-.64-.56.33-.37,1.74,1.52-.33.37-.65-.56-1.54,1.76-.45-.39Z"/>
    <path class="cls-1" d="M37.2,7.93l2.13-1.87,1.38,1.56-.37.33-1-1.13-.46.4.92,1.04-.38.33-.92-1.04-.55.48,1.04,1.18-.38.33-1.42-1.61Z"/>
    <path class="cls-1" d="M39.72,11.2l.39-.47-.58-.88-.6.15-.35-.52,2.93-.71.38.58-1.82,2.4-.35-.54ZM41.17,9.4h0s-1.14.31-1.14.31l.4.6.75-.92Z"/>
  </g>
  <g>
    <path class="cls-1" d="M10.93,37.73l1.59-1.72-.63-.58.34-.36,1.7,1.57-.34.36-.63-.58-1.59,1.72-.44-.4Z"/>
    <path class="cls-1" d="M12.37,39l1.58-2.35,1.73,1.16-.28.41-1.25-.84-.34.5,1.15.77-.28.41-1.15-.77-.41.61,1.31.88-.28.42-1.78-1.2Z"/>
    <path class="cls-1" d="M16.58,41.34l.79-1.78-1.28,1.56-.54-.24.31-1.98-.79,1.77-.5-.22,1.16-2.59.8.35-.38,2.11,1.32-1.69.78.35-1.16,2.59-.51-.23Z"/>
    <path class="cls-1" d="M17.6,41.72l.72-2.75,1.21.32c.54.14.78.62.65,1.12-.13.5-.57.77-1.11.63l-.64-.17-.26,1-.57-.15ZM19.11,40.55c.33.09.51-.05.57-.29.06-.23-.03-.43-.36-.52l-.55-.14-.21.81.55.14Z"/>
    <path class="cls-1" d="M20.06,42.34l.39-2.81.59.08-.31,2.29,1.39.19-.07.51-1.98-.27Z"/>
    <path class="cls-1" d="M22.4,42.64l.08-2.84,2.08.06v.5s-1.52-.04-1.52-.04l-.02.61,1.39.04v.5s-1.4-.04-1.4-.04l-.02.73,1.58.04v.5s-2.17-.06-2.17-.06Z"/>
    <path class="cls-1" d="M25.65,42.64l-.16-2.33-.85.06-.03-.49,2.3-.16.03.49-.86.06.16,2.33-.59.04Z"/>
    <path class="cls-1" d="M27.07,41.17c-.17-.94.2-1.6,1.06-1.76.86-.16,1.44.32,1.61,1.28.18.96-.21,1.54-1.06,1.7-.86.16-1.44-.28-1.61-1.22ZM29.16,40.79c-.12-.66-.46-.96-.94-.87-.49.09-.7.49-.58,1.15.12.66.46.9.94.81.42-.08.7-.43.58-1.09Z"/>
    <path class="cls-1" d="M32.15,41.31l-1.78-1.39.64,1.8-.52.18-.95-2.67.59-.21,1.68,1.34-.61-1.72.52-.19.95,2.67-.52.18Z"/>
    <path class="cls-1" d="M33.23,41.33c.17-.15.21-.31.1-.55l-.3.14-.25-.52.53-.26.19.39c.21.43.18.71-.18.98l-.09-.19Z"/>
    <path class="cls-1" d="M36.43,37.58c.3.59.2,1.2-.32,1.6-.59.45-1.35.39-1.94-.38-.58-.77-.53-1.54.11-2.03.56-.43,1.2-.34,1.59.08l-.47.36c-.26-.21-.58-.21-.8-.03-.39.3-.34.74.03,1.23.38.5.79.66,1.16.38.28-.21.33-.5.18-.83l.47-.36Z"/>
    <path class="cls-1" d="M38.57,36.7l-.55-.26-.7.77.3.54-.42.46-1.42-2.65.46-.51,2.77,1.17-.43.48ZM36.47,35.74h0s.59,1.03.59,1.03l.49-.53-1.07-.5Z"/>
  </g>
  <path class="cls-1" d="M42.67,17.76c.14.22,2.47-3.1-1.54-4.3,0,0-.25,2.07.03,3.04s1.08,1.34,1.08,1.34c0,0-.73-.93-.24-2.61,0,0-.02,1.47.67,2.54Z"/>
  <path class="cls-1" d="M42.02,18.55s1.11-.16,1.56-1.97-.03-3.22,3.72-3.26c0,0-.36.92-.47,1.97s-1.23,2.21-2.45,2.61c0,0,1.29-1.21,1.11-2.37,0,0-1.07,2.95-3.47,3.02Z"/>
</svg>